# xmcd CD database file
#
# Track frame offsets:
#	150
#	15655
#	31370
#	46657
#	68057
#	83992
#	105055
#	121145
#	140572
#	164092
#	179820
#	192815
#	207665
#	226372
#
# Disc length: 3219 seconds
#
# Revision: 2
# Processed by: cddbd v1.5.2PL0 Copyright (c) Steve Scherf et al.
# Submitted via: jetAudio 7
#
DISCID=bd0c910e
DTITLE=Blues&Ballads - Dreams In Love 2
DYEAR=1900
DGENRE=blues
TTITLE0=Valery - I Will Always Love You
TTITLE1=Power Band - Now I Know What Made Otis Blue
TTITLE2=Bill Power - Streets Of Philadelphia
TTITLE3=Jackie Moore - Why
TTITLE4=Annie Adams - Imagine
TTITLE5=Band - Knocking On Heaven's Door
TTITLE6=The Boys - The Grying Game
TTITLE7=The Love Art - Moments In Love
TTITLE8=Band - Wind Of Change
TTITLE9=Moon - Moonlight Shadow
TTITLE10=Mc Dandy - De Do Do Do Do De Da Da
TTITLE11=Roots Band - Can't Help Falling In Love
TTITLE12=Kris Isak - Wicked Game
TTITLE13=Mc Brian - Only The Lonely
EXTD=
EXTT0=
EXTT1=
EXTT2=
EXTT3=
EXTT4=
EXTT5=
EXTT6=
EXTT7=
EXTT8=
EXTT9=
EXTT10=
EXTT11=
EXTT12=
EXTT13=
PLAYORDER=
